<svg width="884" height="788" viewBox="0 0 884 788" fill="none" xmlns="http://www.w3.org/2000/svg">
<path opacity="0.5" d="M624.845 788C624.482 787.205 624.102 786.417 623.704 785.635C623.307 784.854 622.9 784.083 622.483 783.323C622.064 782.565 621.63 781.813 621.182 781.067C620.526 779.948 619.806 778.863 619.087 777.776C618.129 776.335 617.104 774.936 616.079 773.541C614.788 771.801 613.411 770.117 612.02 768.446C611.178 767.43 610.3 766.44 609.423 765.458C607.979 763.822 606.47 762.241 604.953 760.651C603.437 759.061 601.862 757.516 600.286 755.977C598.709 754.437 597.092 752.916 595.473 751.404C592.55 748.674 589.569 745.999 586.588 743.321C583.274 740.345 579.958 737.369 576.684 734.359C575.375 733.155 574.079 731.941 572.793 730.719C571.187 729.198 569.61 727.649 568.046 726.088C566.481 724.528 564.967 722.942 563.468 721.336C561.969 719.73 560.53 718.089 559.109 716.43C559.121 716.442 559.132 716.455 559.141 716.469C558.576 715.802 558.02 715.131 557.472 714.456C556.639 713.442 555.845 712.408 555.05 711.372C554.255 710.335 553.511 709.285 552.761 708.23C552.012 707.175 551.33 706.139 550.636 705.08C550.184 704.383 549.742 703.68 549.31 702.972C548.663 701.931 548.056 700.867 547.452 699.806C546.848 698.744 546.304 697.694 545.75 696.627C545.196 695.561 544.717 694.536 544.223 693.481L544.203 693.442L544.218 693.474C543.896 692.773 543.583 692.069 543.281 691.363C542.819 690.308 542.401 689.235 541.985 688.164C541.298 686.403 540.709 684.613 540.147 682.818C539.586 681.024 539.144 679.254 538.706 677.455C538.455 676.386 538.237 675.308 538.024 674.237C537.811 673.167 537.643 672.089 537.477 671.02L537.477 671.034C537.43 670.689 537.38 670.345 537.332 670C537.234 669.285 537.146 668.566 537.081 667.847C536.956 666.771 536.876 665.693 536.793 664.613C536.63 662.46 536.593 660.3 536.593 658.142C536.593 655.984 536.715 653.824 536.873 651.668C537.031 649.513 537.299 647.373 537.605 645.234C537.772 644.161 537.949 643.089 538.134 642.017C538.385 640.576 538.696 639.144 539.012 637.712C539.327 636.281 539.693 634.842 540.067 633.415C540.44 631.988 540.869 630.549 541.3 629.125C542.17 626.243 543.188 623.4 544.261 620.576C545.349 617.715 546.567 614.897 547.836 612.098L547.816 612.137L547.836 612.096L547.836 612.08L547.836 612.094C548.319 611.05 548.809 610.009 549.307 608.968C549.808 607.909 550.345 606.859 550.876 605.809C552.13 603.336 553.456 600.9 554.817 598.478C556.178 596.056 557.627 593.585 559.116 591.193C560.605 588.801 562.172 586.367 563.756 584.005C565.341 581.642 567.015 579.248 568.69 576.899C570.364 574.551 572.119 572.204 573.881 569.886C577.411 565.237 581.101 560.693 584.869 556.203L584.854 556.224C586.478 554.301 588.118 552.386 589.775 550.479C591.424 548.583 593.101 546.705 594.788 544.835C598.401 540.818 602.098 536.865 605.836 532.947C612.762 525.69 619.891 518.6 627.104 511.575C633.684 505.17 640.357 498.844 647.015 492.501C657.166 482.849 667.381 473.249 677.659 463.7C687.967 454.154 698.392 444.715 708.936 435.383C719.48 426.052 730.175 416.895 741.023 407.912C746.181 403.643 751.384 399.421 756.633 395.248C761.792 391.13 766.93 386.993 772.048 382.838C776.847 378.932 781.61 374.984 786.336 370.997C791.489 366.641 796.566 362.213 801.568 357.714C806.185 353.559 810.71 349.321 815.142 344.999C817.353 342.854 819.532 340.677 821.678 338.468C824.184 335.917 826.623 333.318 829.038 330.698C831.093 328.464 833.096 326.192 835.079 323.903C836.741 321.984 838.36 320.033 839.965 318.073C841.855 315.774 843.68 313.408 845.48 311.038C847.235 308.726 848.919 306.369 850.569 303.992C853.193 300.208 855.642 296.324 857.984 292.39C859.159 290.416 860.28 288.414 861.385 286.415C862.677 284.066 863.892 281.683 865.083 279.291C866.968 275.501 868.695 271.643 870.325 267.757C871.207 265.652 872.032 263.526 872.832 261.396C873.772 258.914 874.632 256.407 875.464 253.893C876.173 251.742 876.822 249.575 877.452 247.403C878.081 245.231 878.647 243.053 879.191 240.867C879.735 238.682 880.214 236.501 880.67 234.3C881.202 231.749 881.651 229.182 882.064 226.61C882.363 224.751 882.613 222.885 882.846 221.017C883.125 218.822 883.333 216.621 883.518 214.417C883.704 212.213 883.809 210.041 883.899 207.835C884.004 205.282 884.015 202.727 883.987 200.174C883.962 197.993 883.864 195.807 883.736 193.638C883.608 191.469 883.413 189.308 883.187 187.148C883.074 186.073 882.937 184.997 882.799 183.931C882.701 183.189 882.596 182.442 882.48 181.7C882.313 180.627 882.14 179.56 881.961 178.498C881.711 177.083 881.433 175.672 881.142 174.261C880.708 172.151 880.192 170.055 879.638 167.966C879.084 165.878 878.469 163.816 877.818 161.762C877.166 159.707 876.426 157.674 875.662 155.651C874.767 153.291 873.764 150.966 872.716 148.661C871.964 146.983 871.129 145.328 870.285 143.683C869.282 141.734 868.204 139.825 867.091 137.938C865.978 136.051 864.77 134.169 863.539 132.324C862.09 130.152 860.531 128.045 858.929 125.965C857.758 124.442 856.522 122.962 855.271 121.491C853.767 119.733 852.206 118.044 850.606 116.359C849.007 114.675 847.28 113.025 845.555 111.412C843.502 109.495 841.354 107.67 839.168 105.885C837.255 104.32 835.27 102.833 833.264 101.369C831.472 100.064 829.627 98.8228 827.772 97.5934C825.282 95.948 822.723 94.3923 820.141 92.8732C818.87 92.1263 817.579 91.4117 816.285 90.697C814.581 89.7548 812.846 88.8586 811.104 87.9784C808.532 86.6732 805.902 85.4667 803.255 84.3016C801.946 83.7225 800.62 83.1778 799.297 82.6332C798.394 82.2609 797.477 81.8978 796.564 81.5508L795.236 81.0452C794.352 80.7127 793.463 80.3871 792.571 80.0685C791.245 79.5882 789.901 79.1493 788.56 78.6897C785.457 77.6578 782.293 76.7571 779.134 75.9091C776.442 75.1898 773.717 74.5716 770.987 73.9833C768.257 73.3949 765.532 72.917 762.787 72.4666C761.419 72.2368 760.045 72.0506 758.669 71.8576C757.729 71.7266 756.776 71.6049 755.831 71.4946C754.454 71.3337 753.077 71.1805 751.7 71.035C749.86 70.8511 748.02 70.7155 746.185 70.5754C743.427 70.3823 740.652 70.2812 737.882 70.2099C735.112 70.1387 732.332 70.1548 729.557 70.2099C726.782 70.2651 724 70.3892 721.224 70.5478C717.978 70.7362 714.739 71.0304 711.506 71.3636C709.159 71.6072 706.82 71.9082 704.486 72.2253C701.709 72.5999 698.941 73.0503 696.179 73.526C693.416 74.0017 690.664 74.5509 687.906 75.1231C684.683 75.7941 681.481 76.5525 678.29 77.3454C675.533 78.0348 672.815 78.7747 670.093 79.5422C667.371 80.3097 664.653 81.1509 661.951 81.9966C659.248 82.8423 656.554 83.7615 653.871 84.6922C650.735 85.7838 647.629 86.9444 644.536 88.1393C639.191 90.1938 633.927 92.4206 628.715 94.7439C625.687 96.0928 622.699 97.5015 619.711 98.9401C616.723 100.379 613.785 101.863 610.852 103.378C605.427 106.177 600.103 109.139 594.843 112.193C589.233 115.452 583.738 118.876 578.326 122.399C573.252 125.703 568.299 129.159 563.345 132.611C558.245 136.165 553.162 139.744 548.096 143.348C537.608 150.789 527.164 158.285 516.673 165.721L516.741 165.673C511.694 169.247 506.632 172.803 501.555 176.341C496.098 180.142 490.608 183.901 485.083 187.619C479.557 191.338 474.003 194.981 468.42 198.551C462.845 202.135 457.211 205.638 451.519 209.06C446.258 212.236 440.936 215.326 435.553 218.331C429.777 221.565 423.928 224.681 418.005 227.679C412.082 230.677 406.089 233.538 400.026 236.262C396.993 237.629 393.93 238.944 390.856 240.235C387.783 241.527 384.717 242.745 381.624 243.947L381.644 243.947C380.307 244.462 378.964 244.971 377.615 245.475C376.269 245.978 374.916 246.468 373.562 246.955C370.396 248.104 367.202 249.175 363.998 250.225C360.795 251.275 357.536 252.266 354.282 253.212C351.028 254.159 347.709 255.067 344.405 255.926C341.101 256.786 337.719 257.581 334.358 258.337C330.996 259.093 327.554 259.785 324.135 260.435C320.716 261.086 317.206 261.667 313.727 262.207C310.515 262.703 307.292 263.126 304.065 263.531L303.98 263.531L304.02 263.531C302.683 263.684 301.346 263.837 300.009 263.99C298.184 264.195 296.359 264.372 294.535 264.546C290.855 264.898 287.169 265.172 283.479 265.406C279.789 265.64 276.032 265.806 272.307 265.93C268.581 266.054 264.786 266.1 261.038 266.111C257.291 266.123 253.48 266.052 249.703 265.948C245.925 265.845 242.112 265.661 238.322 265.44C234.531 265.22 230.719 264.921 226.923 264.586C223.128 264.25 219.385 263.841 215.627 263.393C214.204 263.218 212.783 263.037 211.366 262.851C209.471 262.602 207.578 262.329 205.69 262.051C202.379 261.564 199.08 261.012 195.789 260.442C192.497 259.872 189.216 259.224 185.942 258.555C182.204 257.792 178.489 256.947 174.784 256.062C171.545 255.29 168.326 254.453 165.118 253.585C161.458 252.597 157.825 251.517 154.208 250.411C151.052 249.441 147.921 248.403 144.8 247.336C141.245 246.123 137.728 244.82 134.226 243.478L134.254 243.489C133.406 243.163 132.561 242.831 131.717 242.494C130.413 241.982 129.12 241.451 127.826 240.918C125.244 239.858 122.692 238.744 120.145 237.609C117.598 236.474 115.104 235.295 112.607 234.09C110.111 232.886 107.664 231.634 105.22 230.358C103.187 229.301 101.184 228.201 99.186 227.091C96.7945 225.76 94.4405 224.377 92.1017 222.972C89.7629 221.568 87.4766 220.114 85.2004 218.638C82.9242 217.163 80.7333 215.662 78.5373 214.127L78.5749 214.155C77.8412 213.637 77.1102 213.115 76.3815 212.59C75.6529 212.064 74.93 211.535 74.213 211.002C72.3454 209.623 70.5179 208.21 68.698 206.78C67.2265 205.631 65.7876 204.427 64.3538 203.23C62.5815 201.75 60.8442 200.226 59.1421 198.689C57.7859 197.473 56.4648 196.228 55.1487 194.978C53.5193 193.431 51.9376 191.839 50.3708 190.239C48.8039 188.64 47.32 187.022 45.8334 185.395C44.3469 183.768 42.9581 182.141 41.5718 180.486C41.0254 179.837 40.4855 179.182 39.9524 178.524C39.4193 177.865 38.8795 177.192 38.3331 176.504C36.9969 174.824 35.7134 173.107 34.445 171.384C33.4423 170.005 32.4646 168.626 31.4994 167.224C30.2987 165.485 29.1531 163.717 28.02 161.939C27.1175 160.523 26.2653 159.087 25.3979 157.651C24.33 155.86 23.3172 154.043 22.317 152.218C20.5246 148.948 18.8826 145.609 17.3184 142.244L17.3585 142.334C17.016 141.586 16.6775 140.836 16.3433 140.084C15.8419 138.958 15.3606 137.823 14.8818 136.688C14.0846 134.799 13.3426 132.889 12.6257 130.975C11.9087 129.06 11.2243 127.13 10.5675 125.195C9.77539 122.872 9.06347 120.526 8.36407 118.177C7.78497 116.214 7.26105 114.24 6.74963 112.264C6.23822 110.288 5.78204 108.291 5.33581 106.289C4.88965 104.288 4.49603 102.284 4.11749 100.273C3.66125 97.8531 3.2727 95.4217 2.90918 92.9881L2.92426 93.0869C2.74878 91.8644 2.58337 90.6441 2.42291 89.4101C2.26239 88.176 2.12708 86.9581 1.98926 85.7332C1.6709 82.8583 1.44025 79.9742 1.23724 77.0902C1.06677 74.606 0.961427 72.1172 0.878725 69.6285C0.783449 66.7123 0.770937 63.7914 0.790957 60.8728C0.808535 58.345 0.888736 55.8403 0.991519 53.3262C1.10681 50.3755 1.30738 47.427 1.53547 44.4833C1.73352 41.9554 1.9917 39.4114 2.26746 36.879C2.59083 33.9329 2.98945 30.9914 3.41565 28.0545C3.73322 25.9403 4.07239 23.8284 4.43342 21.7187C4.86707 19.168 5.36091 16.624 5.86982 14.0824C6.04023 13.2344 6.21827 12.3864 6.39619 11.5385C6.48896 11.1133 6.57917 10.6905 6.66944 10.2653C6.84992 9.41508 7.02711 8.56401 7.20093 7.7122C7.72736 5.14525 8.2212 2.57146 8.72004 -1.54843e-05C8.58717 0.420517 8.45686 0.83641 8.32398 1.25468C8.06666 2.08806 7.81599 2.92461 7.57197 3.76414C7.2035 5.01891 6.87757 6.29204 6.55164 7.54906C6.22572 8.80608 5.94746 10.0768 5.6717 11.3569C5.39594 12.6369 5.14283 13.9009 4.88721 15.1739C4.38587 17.7133 3.92451 20.2595 3.48585 22.8081C3.04712 25.3566 2.66608 27.9535 2.30256 30.5318C1.59308 35.5876 1.06922 40.6662 0.670658 45.7518C0.472599 48.2796 0.334781 50.8075 0.216922 53.3353C0.0841094 56.2654 0.0264309 59.1999 0.00384764 62.1345C-0.0136697 64.6371 0.0313741 67.1398 0.0965594 69.6377C0.161745 72.1357 0.294679 74.6152 0.450074 77.0994C0.60547 79.5836 0.821046 82.0448 1.06421 84.5106C1.34747 87.3786 1.71606 90.235 2.12213 93.0892C2.41547 95.1575 2.76135 97.2073 3.12488 99.2617C3.54852 101.679 4.0423 104.088 4.56122 106.489C5.08014 108.89 5.66675 111.267 6.27838 113.645C6.99029 116.403 7.80011 119.161 8.64483 121.891C9.36932 124.232 10.169 126.553 10.9912 128.865C11.8134 131.177 12.7109 133.461 13.6334 135.748C14.5559 138.034 15.5561 140.284 16.5789 142.532C17.6017 144.779 18.7322 147.061 19.8754 149.299C21.0184 151.538 22.2092 153.698 23.4376 155.867C24.6659 158.037 25.9845 160.19 27.3181 162.318C28.6517 164.446 30.0756 166.56 31.5195 168.647C33.2142 171.099 35.004 173.493 36.8314 175.865C37.6211 176.887 38.4332 177.896 39.2455 178.903C39.8095 179.592 40.3862 180.298 40.9678 180.985C41.8034 181.984 42.6548 182.98 43.5221 183.972C44.3845 184.965 45.2768 185.94 46.1593 186.914C47.9491 188.881 49.8091 190.795 51.6893 192.689C53.9178 194.929 56.2317 197.097 58.578 199.231C60.6211 201.091 62.7319 202.89 64.8602 204.666C66.9885 206.443 69.2521 208.214 71.4982 209.933C73.629 211.565 75.81 213.151 78.016 214.695C80.2219 216.239 82.5282 217.797 84.8119 219.291C87.0956 220.785 89.3918 222.21 91.7156 223.623C94.0394 225.036 96.4159 226.399 98.7999 227.741C101.184 229.083 103.616 230.375 106.055 231.648C108.907 233.134 111.805 234.55 114.718 235.936C117.225 237.128 119.762 238.266 122.306 239.383C124.851 240.5 127.443 241.571 130.032 242.621C132.231 243.51 134.447 244.36 136.665 245.199C139.736 246.36 142.84 247.449 145.941 248.511C151.298 250.349 156.72 251.992 162.182 253.539C164.92 254.316 167.677 255.039 170.437 255.745C173.661 256.57 176.907 257.328 180.159 258.061C185.739 259.321 191.364 260.408 197.007 261.393C199.832 261.888 202.665 262.331 205.5 262.758C206.916 262.972 208.338 263.17 209.762 263.365C211.185 263.561 212.675 263.758 214.133 263.937C215.592 264.117 216.979 264.28 218.395 264.445C219.811 264.611 221.243 264.756 222.657 264.905C225.504 265.201 228.355 265.445 231.207 265.675C237.362 266.171 243.536 266.479 249.71 266.67C255.368 266.844 261.031 266.861 266.689 266.778C272.758 266.688 278.822 266.417 284.876 266.026C290.391 265.67 295.891 265.153 301.378 264.539C303.674 264.282 305.966 263.988 308.254 263.685C311.661 263.225 315.053 262.708 318.437 262.147C321.403 261.656 324.353 261.099 327.299 260.525C330.244 259.95 333.127 259.318 336.027 258.663C338.928 258.008 341.77 257.303 344.628 256.575C347.94 255.727 351.226 254.807 354.505 253.858C359.155 252.512 363.76 251.032 368.335 249.492C372.91 247.952 377.39 246.298 381.872 244.579C385.915 243.025 389.916 241.38 393.905 239.688C398.287 237.829 402.613 235.867 406.912 233.854C411.212 231.841 415.463 229.738 419.682 227.592C423.901 225.445 428.085 223.214 432.236 220.946C436.388 218.677 440.509 216.329 444.595 213.953C448.681 211.577 452.75 209.127 456.783 206.656C464.883 201.695 472.849 196.545 480.738 191.31C488.667 186.047 496.499 180.661 504.285 175.224C511.73 170.029 519.138 164.791 526.51 159.512C534.654 153.707 542.799 147.904 550.947 142.102L550.876 142.148C554.373 139.672 557.875 137.205 561.385 134.746C565.244 132.04 569.118 129.355 573.007 126.689C576.406 124.373 579.86 122.125 583.337 119.912C587.243 117.428 591.214 115.033 595.219 112.687C598.847 110.561 602.529 108.512 606.249 106.505C610.386 104.267 614.585 102.139 618.819 100.05C623.053 97.9612 627.362 95.9917 631.699 94.0752C636.035 92.1586 640.417 90.373 644.842 88.6518L644.762 88.6816C645.646 88.3384 646.531 88.0007 647.419 87.6682C648.747 87.165 650.084 86.68 651.43 86.1929C654.097 85.2254 656.787 84.3107 659.487 83.4168C662.186 82.5229 664.889 81.6932 667.609 80.889C670.329 80.0846 673.051 79.3309 675.786 78.6047C678.06 78.0003 680.348 77.4557 682.64 76.9041C685.38 76.2538 688.137 75.6723 690.897 75.1163C693.657 74.5601 696.412 74.0752 699.19 73.6156C701.967 73.156 704.725 72.7746 707.502 72.4161L707.46 72.4161C708.367 72.3012 709.279 72.1863 710.189 72.0897C711.099 71.9932 712.039 71.8874 712.967 71.7932C714.815 71.6025 716.667 71.4532 718.522 71.3107C720.377 71.1682 722.225 71.0671 724.077 70.9728C726.389 70.858 728.705 70.8028 731.019 70.7637C732.869 70.7338 734.719 70.7499 736.566 70.7637C738.877 70.7912 741.186 70.8832 743.493 70.9935C745.338 71.0831 747.18 71.2234 749.023 71.3636C751.311 71.5405 753.592 71.7887 755.874 72.053C757.234 72.223 758.592 72.4029 759.947 72.5929C761.782 72.8503 763.607 73.1583 765.43 73.4731C767.252 73.788 769.075 74.1625 770.892 74.5303C772.709 74.898 774.522 75.3345 776.327 75.7712C777.688 76.0975 779.039 76.4606 780.39 76.8214C782.198 77.3063 783.99 77.8417 785.78 78.3864C787.57 78.9311 789.362 79.5354 791.14 80.1444C792.917 80.7533 794.649 81.406 796.389 82.0701L796.467 82.0977L796.406 82.077L797.71 82.5872C798.594 82.9395 799.476 83.2981 800.355 83.6627C802.129 84.3935 803.864 85.1771 805.619 85.9607C806.94 86.5605 808.239 87.1924 809.54 87.8244C811.294 88.677 813.014 89.5801 814.729 90.4924C816.03 91.1818 817.313 91.9081 818.592 92.6297C820.321 93.6087 822.016 94.6359 823.703 95.67C824.984 96.4582 826.242 97.2786 827.503 98.0967C828.97 99.0481 830.406 100.043 831.833 101.045L832.835 101.774C833.512 102.261 834.181 102.755 834.841 103.256C835.844 103.994 836.804 104.759 837.774 105.524C840.002 107.28 842.138 109.127 844.234 111.014C846.289 112.864 848.245 114.801 850.162 116.771C852.033 118.696 853.802 120.7 855.53 122.732C856.252 123.6 856.964 124.474 857.668 125.354C858.61 126.533 859.51 127.737 860.403 128.946C861.952 131.046 863.393 133.211 864.792 135.396C866.191 137.582 867.457 139.797 868.69 142.047C869.924 144.297 870.964 146.588 872.042 148.884C872.335 149.522 872.621 150.164 872.904 150.809C873.188 151.455 873.476 152.135 873.754 152.804C874.313 154.135 874.83 155.481 875.338 156.83C876.359 159.528 877.241 162.27 878.063 165.023C878.886 167.776 879.567 170.577 880.197 173.378C880.826 176.18 881.32 179.018 881.758 181.856C881.861 182.545 881.956 183.235 882.049 183.924C882.142 184.614 882.235 185.358 882.317 186.075C882.535 187.87 882.693 189.669 882.839 191.471C883.13 195.095 883.235 198.728 883.247 202.361C883.26 205.995 883.097 209.678 882.841 213.33C882.586 216.982 882.159 220.684 881.648 224.333L881.663 224.241C881.555 224.974 881.448 225.709 881.332 226.44C881.162 227.543 880.971 228.642 880.778 229.738C880.395 231.942 879.943 234.134 879.475 236.322C879.006 238.51 878.472 240.702 877.908 242.88C877.344 245.059 876.727 247.247 876.085 249.402C874.905 253.383 873.551 257.321 872.102 261.226C870.518 265.498 868.738 269.706 866.838 273.865C866.853 273.837 866.865 273.81 866.878 273.782C866.559 274.476 866.237 275.166 865.913 275.851C865.426 276.885 864.923 277.919 864.409 278.944C863.406 280.998 862.338 283.032 861.258 285.057C859.099 289.094 856.763 293.051 854.319 296.949C852.093 300.504 849.714 303.979 847.252 307.4C845.588 309.712 843.85 311.98 842.096 314.235C840.271 316.581 838.373 318.884 836.46 321.17C836.469 321.159 836.478 321.148 836.488 321.138L836.438 321.196C835.48 322.326 834.517 323.451 833.547 324.569C832.545 325.718 831.542 326.844 830.539 327.975C828.511 330.245 826.43 332.472 824.332 334.69C822.234 336.907 820.071 339.104 817.9 341.281C815.36 343.831 812.766 346.336 810.154 348.823C805.664 353.099 801.054 357.27 796.399 361.393C791.365 365.849 786.236 370.211 781.067 374.533C776.344 378.481 771.581 382.388 766.778 386.253C761.537 390.495 756.25 394.689 750.998 398.92C740.011 407.77 729.241 416.845 718.61 426.058C707.978 435.271 697.485 444.672 687.107 454.158C676.728 463.645 666.488 473.232 656.298 482.861C652.031 486.895 647.775 490.939 643.528 494.995C640.097 498.265 636.671 501.539 633.25 504.816C626.154 511.631 619.154 518.525 612.251 525.499C608.785 529.022 605.359 532.581 601.973 536.173C598.246 540.13 594.588 544.144 591 548.213C587.92 551.692 584.906 555.22 581.958 558.797C578.481 562.994 575.116 567.264 571.863 571.609C568.875 575.58 566.005 579.623 563.252 583.738C561.886 585.77 560.563 587.829 559.262 589.895C557.758 592.287 556.316 594.721 554.907 597.152C553.712 599.22 552.576 601.318 551.463 603.426C550.35 605.533 549.32 607.622 548.304 609.743C547.457 611.512 546.662 613.3 545.883 615.093C544.817 617.549 543.845 620.04 542.92 622.543C542.135 624.664 541.433 626.808 540.761 628.961C540.09 631.115 539.525 633.24 538.984 635.396C538.443 637.551 538.009 639.691 537.608 641.851C537.207 644.011 536.906 646.197 536.645 648.38C536.384 650.563 536.244 652.691 536.144 654.853C536.043 657.016 536.051 659.167 536.106 661.325C536.134 662.405 536.201 663.483 536.272 664.56C536.342 665.638 536.45 666.718 536.562 667.794C536.675 668.869 536.826 669.949 536.979 671.025C537.131 672.1 537.337 673.217 537.538 674.309C537.738 675.4 537.981 676.462 538.224 677.526C538.468 678.59 538.756 679.675 539.044 680.743C539.332 681.812 539.671 682.89 540.007 683.961C540.343 685.031 540.729 686.102 541.11 687.178C541.491 688.253 541.93 689.315 542.363 690.377C542.797 691.438 543.281 692.512 543.762 693.571C544.095 694.304 544.449 695.021 544.802 695.745C545.499 697.179 546.264 698.583 547.038 699.983C547.63 701.051 548.264 702.099 548.898 703.147C549.533 704.195 550.232 705.259 550.919 706.304C551.606 707.35 552.36 708.409 553.102 709.45C553.844 710.491 554.649 711.544 555.444 712.576C556.78 714.315 558.201 716 559.63 717.673C560.482 718.668 561.367 719.64 562.25 720.614C563.428 721.913 564.646 723.181 565.867 724.448C567.702 726.348 569.602 728.2 571.512 730.039C573.423 731.877 575.388 733.69 577.351 735.494C579.314 737.298 581.307 739.084 583.297 740.869C585.287 742.655 587.278 744.438 589.266 746.226C591.254 748.014 593.216 749.811 595.174 751.622C597.132 753.433 599.042 755.262 600.94 757.114C602.838 758.966 604.67 760.851 606.48 762.765C607.382 763.717 608.262 764.691 609.137 765.665C610.012 766.64 610.862 767.632 611.709 768.627L611.682 768.593C612.243 769.259 612.796 769.93 613.341 770.606C613.886 771.282 614.423 771.963 614.953 772.651C615.484 773.341 616.003 774.03 616.517 774.72C617.294 775.765 618.021 776.838 618.773 777.909C619.256 778.628 619.733 779.352 620.205 780.083C620.676 780.814 621.139 781.549 621.594 782.289C622.046 783.032 622.493 783.779 622.932 784.53C623.596 785.663 624.218 786.816 624.835 787.977L624.845 788ZM836.455 321.212L836.478 321.186L836.453 321.214L836.455 321.212ZM584.886 556.171L584.859 556.203C584.869 556.193 584.878 556.182 584.886 556.171Z" fill="#7D8F91"/>
</svg>
