<svg width="859" height="748" viewBox="0 0 859 748" fill="none" xmlns="http://www.w3.org/2000/svg">
<path opacity="0.5" d="M86.441 0.752282C86.984 1.45532 87.5411 2.14721 88.1125 2.82795C88.6838 3.50868 89.2607 4.17649 89.8431 4.83137C90.4281 5.48391 91.0245 6.12688 91.6321 6.76027C92.5299 7.71403 93.4757 8.61815 94.4221 9.52456C95.6802 10.7251 96.989 11.868 98.2966 13.0062C99.9386 14.4227 101.644 15.7635 103.359 17.0869C104.398 17.8923 105.463 18.664 106.525 19.4266C108.279 20.7027 110.078 21.908 111.886 23.1207C113.694 24.3333 115.542 25.4861 117.391 26.6337C119.241 27.7813 121.122 28.9007 123.003 30.0105C126.398 32.0142 129.831 33.949 133.264 35.886C137.082 38.039 140.902 40.1913 144.692 42.3885C146.207 43.2676 147.714 44.1587 149.213 45.0618C151.084 46.1837 152.936 47.3404 154.78 48.5117C156.623 49.6829 158.428 50.8916 160.224 52.1245C162.02 53.3575 163.771 54.6394 165.51 55.944C165.496 55.935 165.482 55.9247 165.47 55.9131C166.163 56.4386 166.85 56.9706 167.53 57.5094C168.56 58.315 169.561 59.1504 170.562 59.9881C171.564 60.8257 172.523 61.6894 173.489 62.5564C174.454 63.4235 175.352 64.2887 176.269 65.1738C176.866 65.7576 177.457 66.3489 178.041 66.9478C178.909 67.8263 179.746 68.7374 180.58 69.6468C181.415 70.5562 182.191 71.4689 182.981 72.3952C183.771 73.3214 184.481 74.2249 185.213 75.1544L185.242 75.1884L185.22 75.1601C185.701 75.7799 186.174 76.4044 186.639 77.0337C187.341 77.9712 188.009 78.9374 188.675 79.9019C189.771 81.4867 190.786 83.1252 191.777 84.775C192.768 86.4247 193.643 88.0787 194.523 89.7631C195.037 90.7658 195.523 91.7856 196.004 92.7998C196.484 93.814 196.924 94.8461 197.36 95.8696L197.357 95.8559C197.492 96.1875 197.63 96.5184 197.765 96.85C198.045 97.5377 198.317 98.2324 198.569 98.9327C198.97 99.9729 199.331 101.026 199.694 102.082C200.417 104.186 201.028 106.327 201.604 108.476C202.179 110.625 202.644 112.805 203.075 114.99C203.506 117.175 203.832 119.371 204.124 121.576C204.257 122.685 204.382 123.796 204.499 124.909C204.655 126.405 204.753 127.906 204.847 129.409C204.941 130.912 204.991 132.434 205.031 133.946C205.071 135.458 205.063 136.995 205.05 138.519C205.025 141.601 204.855 144.681 204.63 147.755C204.401 150.87 204.041 153.973 203.63 157.07L203.638 157.026L203.631 157.072L203.635 157.088L203.631 157.074C203.469 158.231 203.3 159.388 203.123 160.546C202.948 161.723 202.739 162.9 202.534 164.076C202.05 166.844 201.49 169.594 200.895 172.338C200.299 175.083 199.636 177.897 198.916 180.643C198.195 183.389 197.415 186.195 196.6 188.934C195.785 191.674 194.896 194.467 193.995 197.215C193.094 199.963 192.119 202.728 191.129 205.468C189.149 210.96 186.995 216.385 184.755 221.778L184.764 221.753C183.795 224.065 182.809 226.373 181.807 228.677C180.808 230.968 179.779 233.247 178.738 235.522C176.514 240.405 174.196 245.244 171.831 250.059C167.448 258.978 162.835 267.78 158.129 276.538C153.834 284.524 149.434 292.454 145.051 300.397C138.365 312.489 131.607 324.545 124.778 336.566C117.92 348.591 110.926 360.538 103.796 372.407C96.6664 384.276 89.3511 396.008 81.8505 407.603C78.2843 413.115 74.6634 418.591 70.9876 424.029C67.3794 429.391 63.7952 434.766 60.235 440.153C56.8982 445.217 53.6058 450.311 50.3578 455.437C46.8191 461.034 43.3682 466.683 40.0052 472.386C36.9008 477.652 33.9034 482.978 31.0128 488.365C29.5678 491.041 28.1612 493.741 26.7928 496.466C25.1863 499.618 23.6543 502.803 22.1508 506.001C20.8713 508.728 19.6503 511.48 18.4518 514.244C17.4474 516.561 16.4905 518.9 15.5497 521.244C14.4384 523.994 13.4048 526.797 12.3948 529.596C11.4106 532.327 10.5027 535.086 9.63177 537.855C8.24698 542.265 7.04863 546.731 5.96211 551.221C5.41612 553.474 4.9278 555.741 4.45259 558.002C3.90133 560.656 3.42787 563.326 2.97974 565.999C2.27086 570.233 1.72446 574.497 1.27461 578.764C1.03115 581.076 0.845808 583.394 0.684585 585.711C0.489072 588.412 0.373477 591.118 0.284902 593.825C0.211529 596.14 0.197326 598.457 0.202653 600.773C0.207964 603.089 0.272316 605.396 0.359085 607.705C0.445854 610.014 0.590839 612.303 0.761938 614.606C0.957625 617.276 1.23307 619.942 1.54176 622.603C1.76559 624.527 2.03473 626.447 2.32049 628.364C2.65214 630.617 3.04964 632.86 3.46838 635.1C3.88712 637.339 4.37045 639.527 4.8767 641.746C5.46179 644.314 6.13441 646.861 6.84072 649.396C7.44543 651.561 8.1177 653.714 8.8131 655.842C9.50851 657.971 10.2632 660.074 11.0454 662.17C11.4353 663.213 11.848 664.25 12.2583 665.278C12.5455 665.993 12.8408 666.711 13.144 667.422C13.5826 668.449 14.0251 669.469 14.4715 670.483C15.0779 671.831 15.7082 673.168 16.35 674.502C17.3085 676.496 18.3388 678.457 19.4015 680.401C20.4643 682.346 21.5746 684.248 22.7174 686.134C23.8601 688.021 25.0774 689.865 26.3145 691.691C27.7607 693.823 29.296 695.893 30.8669 697.932C32.0006 699.418 33.2037 700.862 34.4134 702.294C35.8481 703.989 37.3411 705.627 38.8599 707.233C40.3787 708.84 41.9833 710.418 43.5986 711.955C45.4999 713.763 47.4847 715.48 49.501 717.159C50.9756 718.39 52.498 719.561 54.0316 720.72C55.8729 722.103 57.7484 723.403 59.6569 724.689C61.5655 725.975 63.5815 727.196 65.5855 728.38C67.9699 729.787 70.4168 731.078 72.8875 732.322C75.0501 733.413 77.2582 734.408 79.4784 735.375C81.4619 736.236 83.4763 737.021 85.4968 737.792C88.2068 738.821 90.957 739.745 93.718 740.626C95.0768 741.059 96.4454 741.455 97.8162 741.85C99.6228 742.372 101.445 742.84 103.269 743.29C105.964 743.961 108.685 744.52 111.411 745.033C112.759 745.289 114.114 745.508 115.467 745.726C116.39 745.876 117.324 746.014 118.249 746.136L119.596 746.315C120.491 746.43 121.389 746.537 122.288 746.636C123.626 746.79 124.969 746.898 126.315 747.028C129.422 747.297 132.548 747.42 135.656 747.492C138.305 747.55 140.956 747.5 143.603 747.418C146.251 747.337 148.864 747.146 151.489 746.924C152.799 746.818 154.102 746.668 155.409 746.523C156.302 746.424 157.203 746.312 158.095 746.191C159.394 746.015 160.692 745.831 161.987 745.639C163.715 745.372 165.429 745.057 167.141 744.748C169.708 744.266 172.267 743.689 174.813 743.082C177.36 742.476 179.892 741.781 182.409 741.047C184.926 740.314 187.432 739.51 189.921 738.674C192.833 737.693 195.709 736.608 198.57 735.486C200.646 734.669 202.7 733.798 204.744 732.912C207.179 731.86 209.583 730.735 211.977 729.586C214.37 728.437 216.735 727.217 219.098 725.973C221.86 724.517 224.579 722.979 227.279 721.41C229.611 720.049 231.892 718.648 234.171 717.218C236.45 715.789 238.705 714.287 240.945 712.784C243.185 711.281 245.398 709.707 247.597 708.125C250.167 706.271 252.691 704.356 255.195 702.41C259.523 699.058 263.731 695.554 267.866 691.967C270.269 689.883 272.62 687.75 274.962 685.587C277.305 683.424 279.589 681.228 281.861 679.003C286.063 674.89 290.131 670.639 294.114 666.312C298.364 661.696 302.463 656.944 306.461 652.113C310.209 647.582 313.806 642.93 317.404 638.282C321.11 633.496 324.792 628.69 328.452 623.864C336.036 613.891 343.565 603.874 351.152 593.905L351.103 593.97C354.754 589.177 358.424 584.399 362.112 579.635C366.077 574.517 370.083 569.431 374.132 564.378C378.181 559.326 382.276 554.34 386.418 549.42C390.548 544.489 394.753 539.624 399.034 534.825C402.986 530.377 407.017 525.999 411.127 521.691C415.533 517.059 420.039 512.527 424.642 508.094C429.246 503.66 433.951 499.347 438.755 495.152C441.158 493.049 443.602 490.991 446.062 488.954C448.521 486.917 450.993 484.955 453.495 483.002L453.477 483.007C454.559 482.167 455.648 481.332 456.744 480.5C457.838 479.67 458.943 478.852 460.048 478.036C462.63 476.118 465.258 474.271 467.9 472.442C470.543 470.613 473.252 468.83 475.968 467.092C478.684 465.354 481.47 463.639 484.255 461.975C487.04 460.312 489.914 458.693 492.779 457.119C495.644 455.544 498.6 454.014 501.546 452.53C504.492 451.047 507.539 449.61 510.569 448.222C513.367 446.943 516.195 445.733 519.031 444.542L519.108 444.521L519.072 444.531C520.251 444.052 521.43 443.572 522.608 443.093C524.219 442.443 525.837 441.821 527.455 441.201C530.719 439.951 534.008 438.778 537.312 437.642C540.616 436.507 544 435.424 547.366 434.389C550.731 433.355 554.182 432.381 557.598 431.454C561.014 430.526 564.509 429.666 567.984 428.845C571.458 428.025 574.986 427.275 578.503 426.569C582.019 425.862 585.578 425.227 589.13 424.633C592.682 424.039 596.206 423.532 599.754 423.059C601.1 422.885 602.444 422.718 603.787 422.558C605.582 422.341 607.382 422.151 609.178 421.966C612.329 421.642 615.486 421.385 618.641 421.147C621.796 420.91 624.963 420.753 628.128 420.619C631.742 420.465 635.357 420.399 638.973 420.374C642.134 420.351 645.294 420.397 648.454 420.477C652.056 420.566 655.658 420.754 659.254 420.97C662.392 421.164 665.526 421.433 668.657 421.732C672.224 422.071 675.781 422.509 679.334 422.989L679.306 422.984C680.166 423.102 681.026 423.225 681.886 423.355C683.212 423.546 684.533 423.759 685.856 423.973C688.494 424.397 691.12 424.883 693.746 425.39C696.373 425.898 698.963 426.462 701.562 427.051C704.162 427.639 706.728 428.288 709.298 428.961C711.435 429.516 713.556 430.123 715.675 430.739C718.212 431.48 720.729 432.282 723.237 433.108C725.745 433.934 728.219 434.824 730.69 435.736C733.16 436.649 735.559 437.607 737.972 438.599L737.931 438.581C738.738 438.917 739.544 439.258 740.349 439.603C741.154 439.948 741.955 440.298 742.751 440.654C744.823 441.57 746.868 442.53 748.909 443.509C750.558 444.293 752.192 445.14 753.82 445.982C755.832 447.022 757.823 448.115 759.787 449.229C761.348 450.108 762.886 451.025 764.42 451.948C766.319 453.09 768.187 454.289 770.043 455.498C771.9 456.708 773.685 457.956 775.475 459.213C777.266 460.469 778.967 461.75 780.673 463.058C781.345 463.572 782.012 464.091 782.674 464.616C783.336 465.142 784.009 465.681 784.691 466.232C786.358 467.578 787.987 468.973 789.604 470.379C790.887 471.507 792.146 472.641 793.401 473.801C794.961 475.239 796.477 476.719 797.986 478.213C799.187 479.402 800.347 480.624 801.522 481.842C802.974 483.363 804.383 484.925 805.782 486.498C808.29 489.315 810.679 492.239 813.004 495.206L812.943 495.127C813.455 495.787 813.964 496.451 814.47 497.119C815.227 498.117 815.969 499.13 816.709 500.143C817.94 501.829 819.127 503.549 820.292 505.28C821.457 507.011 822.596 508.765 823.711 510.532C825.054 512.651 826.329 514.813 827.594 516.981C828.646 518.793 829.651 520.631 830.645 522.474C831.638 524.316 832.587 526.193 833.529 528.077C834.47 529.961 835.363 531.86 836.245 533.77C837.307 536.068 838.31 538.393 839.291 540.728L839.251 540.633C839.737 541.807 840.214 542.982 840.689 544.171C841.165 545.361 841.614 546.541 842.066 547.726C843.124 550.511 844.103 553.326 845.058 556.148C845.876 558.58 846.636 561.032 847.376 563.49C848.241 566.371 849.032 569.276 849.792 572.187C850.45 574.708 851.045 577.221 851.622 579.75C852.304 582.716 852.908 585.701 853.485 588.688C853.979 591.253 854.422 593.849 854.846 596.438C855.337 599.451 855.758 602.477 856.153 605.505C856.427 607.688 856.681 609.874 856.915 612.062C857.2 614.708 857.428 617.362 857.642 620.017C857.712 620.903 857.776 621.791 857.84 622.679C857.869 623.125 857.899 623.568 857.93 624.013C857.993 624.904 858.058 625.795 858.127 626.685C858.331 629.37 858.567 632.053 858.798 634.736C858.807 634.284 858.815 633.838 858.825 633.389C858.837 632.497 858.843 631.603 858.842 630.707C858.843 629.367 858.801 628.02 858.763 626.689C858.725 625.358 858.639 624.024 858.55 622.682C858.46 621.34 858.353 620.02 858.247 618.69C858.027 616.039 857.768 613.391 857.489 610.746C857.209 608.101 856.864 605.423 856.508 602.766C855.806 597.559 854.929 592.374 853.936 587.213C853.442 584.648 852.894 582.097 852.327 579.551C851.666 576.601 850.936 573.665 850.173 570.738C849.522 568.242 848.813 565.761 848.087 563.29C847.361 560.819 846.578 558.382 845.774 555.947C844.969 553.511 844.116 551.113 843.236 548.718C842.213 545.931 841.114 543.177 839.982 540.435C839.163 538.447 838.3 536.49 837.421 534.534C836.389 532.23 835.296 529.953 834.182 527.689C833.068 525.424 831.899 523.202 830.706 520.983C829.321 518.411 827.846 515.864 826.347 513.352C825.061 511.197 823.713 509.082 822.346 506.981C820.979 504.88 819.551 502.825 818.099 500.774C816.647 498.723 815.134 496.727 813.602 494.739C812.069 492.752 810.429 490.756 808.788 488.807C807.148 486.857 805.486 484.998 803.786 483.138C802.087 481.278 800.309 479.457 798.525 477.664C796.74 475.871 794.877 474.114 793.003 472.389C790.803 470.362 788.531 468.416 786.231 466.501C785.238 465.676 784.228 464.87 783.218 464.066C782.52 463.518 781.805 462.956 781.091 462.414C780.062 461.624 779.02 460.84 777.964 460.064C776.912 459.286 775.838 458.534 774.773 457.78C772.615 456.259 770.407 454.808 768.187 453.382C765.556 451.696 762.867 450.103 760.156 448.551C757.796 447.2 755.391 445.924 752.975 444.676C750.559 443.427 748.021 442.216 745.513 441.054C743.134 439.95 740.721 438.905 738.297 437.906C735.872 436.908 733.352 435.92 730.87 434.991C728.388 434.062 725.913 433.205 723.416 432.366C720.919 431.527 718.387 430.751 715.854 429.997C713.321 429.244 710.758 428.552 708.193 427.881C705.193 427.098 702.172 426.397 699.144 425.729C696.539 425.155 693.921 424.642 691.302 424.152C688.682 423.662 686.032 423.23 683.389 422.817C681.146 422.469 678.897 422.164 676.649 421.871C673.538 421.466 670.416 421.141 667.304 420.842C661.926 420.321 656.54 420.01 651.144 419.805C648.439 419.701 645.73 419.655 643.024 419.627C639.863 419.594 636.699 419.632 633.537 419.697C628.109 419.807 622.687 420.1 617.276 420.498C614.567 420.697 611.864 420.948 609.163 421.215C607.814 421.349 606.464 421.499 605.113 421.653C603.762 421.806 602.351 421.974 600.972 422.152C599.593 422.33 598.285 422.506 596.948 422.688C595.612 422.869 594.267 423.075 592.938 423.272C590.26 423.673 587.595 424.127 584.931 424.596C579.184 425.606 573.468 426.809 567.784 428.129C562.576 429.338 557.405 430.706 552.265 432.172C546.752 433.745 541.292 435.497 535.873 437.366C530.936 439.069 526.056 440.928 521.213 442.881C519.187 443.698 517.175 444.551 515.168 445.413C512.182 446.703 509.226 448.047 506.288 449.433C503.713 450.647 501.17 451.923 498.636 453.215C496.102 454.507 493.64 455.841 491.169 457.202C488.697 458.563 486.292 459.96 483.879 461.384C481.084 463.038 478.331 464.757 475.592 466.504C471.709 468.981 467.903 471.58 464.139 474.232C460.376 476.883 456.731 479.626 453.1 482.433C449.825 484.969 446.614 487.585 443.426 490.244C439.925 493.166 436.501 496.178 433.115 499.233C429.73 502.289 426.412 505.422 423.136 508.59C419.859 511.759 416.637 515.004 413.455 518.277C410.273 521.55 407.139 524.896 404.045 528.261C400.951 531.626 397.893 535.059 394.872 538.505C388.806 545.425 382.912 552.501 377.111 559.642C371.281 566.82 365.573 574.098 359.92 581.415C354.513 588.408 349.151 595.433 343.834 602.492C337.953 610.263 332.07 618.033 326.184 625.801L326.236 625.738C323.707 629.058 321.169 632.371 318.623 635.677C315.825 639.314 313.007 642.936 310.17 646.54C307.687 649.678 305.135 652.76 302.553 655.814C299.652 659.242 296.668 662.597 293.64 665.912C290.897 668.916 288.084 671.857 285.226 674.764C282.049 678.004 278.786 681.149 275.48 684.264C272.175 687.379 268.769 690.393 265.323 693.362C261.878 696.33 258.356 699.179 254.779 701.975L254.844 701.926C254.129 702.483 253.411 703.036 252.69 703.584C251.612 704.41 250.523 705.22 249.424 706.034C247.249 707.649 245.039 709.217 242.814 710.767C240.59 712.318 238.345 713.804 236.079 715.27C233.812 716.736 231.529 718.152 229.227 719.543C227.314 720.701 225.371 721.803 223.428 722.912C221.102 724.23 218.741 725.483 216.372 726.711C214.002 727.939 211.618 729.096 209.206 730.232C206.795 731.369 204.381 732.423 201.942 733.459L201.981 733.448C201.184 733.785 200.382 734.122 199.577 734.441C198.773 734.759 197.944 735.094 197.122 735.415C195.488 736.057 193.837 736.658 192.183 737.254C190.529 737.849 188.87 738.401 187.205 738.948C185.127 739.627 183.028 740.248 180.928 740.853C179.248 741.335 177.556 741.771 175.866 742.209C173.75 742.747 171.619 743.22 169.486 743.674C167.779 744.035 166.06 744.346 164.342 744.657C162.206 745.04 160.059 745.351 157.907 745.646C156.621 745.809 155.334 745.962 154.047 746.104C152.304 746.296 150.557 746.436 148.81 746.568C147.063 746.7 145.3 746.772 143.544 746.85C141.788 746.929 140.018 746.937 138.255 746.943C136.926 746.951 135.596 746.92 134.267 746.891C132.489 746.85 130.711 746.755 128.932 746.65C127.154 746.546 125.357 746.382 123.573 746.21C121.789 746.038 120.035 745.812 118.271 745.576L118.192 745.568L118.253 745.573L116.927 745.384C116.027 745.249 115.127 745.108 114.227 744.96C112.413 744.666 110.621 744.31 108.811 743.959C107.446 743.684 106.093 743.373 104.737 743.061C102.909 742.641 101.099 742.163 99.291 741.673C97.9201 741.305 96.5554 740.896 95.1964 740.49C93.3571 739.938 91.537 739.329 89.7219 738.712C88.3429 738.24 86.9759 737.731 85.6072 737.225C84.0154 736.636 82.4395 735.997 80.8708 735.348L79.7616 734.867C79.0141 734.548 78.2724 734.219 77.5364 733.882C76.4248 733.392 75.3447 732.865 74.2554 732.34C71.7538 731.137 69.3122 729.82 66.8968 728.453C64.5279 727.114 62.2271 725.663 59.952 724.171C57.7321 722.711 55.5827 721.148 53.4649 719.547C52.5745 718.859 51.691 718.163 50.8145 717.459C49.64 716.516 48.4977 715.537 47.361 714.552C45.3872 712.839 43.4946 711.036 41.6353 709.202C39.776 707.368 38.03 705.471 36.3045 703.533C34.579 701.594 33.0186 699.567 31.4227 697.545C30.9846 696.981 30.5528 696.412 30.1221 695.838C29.6914 695.265 29.2469 694.658 28.8146 694.06C27.9496 692.872 27.1192 691.657 26.295 690.439C24.6444 688.002 23.1079 685.488 21.6232 682.947C20.1385 680.407 18.7691 677.785 17.4477 675.149C16.1262 672.514 14.9185 669.809 13.761 667.09C13.4833 666.429 13.2125 665.766 12.9439 665.102C12.6754 664.438 12.3921 663.719 12.1253 663.026C11.4475 661.292 10.8234 659.539 10.2101 657.781C8.97791 654.243 7.91249 650.652 6.93175 647.037C5.95099 643.423 5.11684 639.715 4.3759 636.016C3.63498 632.318 3.03608 628.528 2.52902 624.769L2.53982 624.864C2.44258 624.108 2.34474 623.35 2.25497 622.594C2.11621 621.454 1.99696 620.313 1.88061 619.175C1.64257 616.887 1.46933 614.593 1.31335 612.301C1.15737 610.008 1.05962 607.694 0.992996 605.387C0.926388 603.08 0.905298 600.751 0.915719 598.448C0.931032 594.196 1.11523 589.944 1.3955 585.702C1.70117 581.061 2.20243 576.436 2.82632 571.83C2.81996 571.861 2.81587 571.892 2.8118 571.922C2.91785 571.153 3.02744 570.388 3.14052 569.627C3.30833 568.478 3.49214 567.325 3.68755 566.179C4.05428 563.889 4.48598 561.603 4.93157 559.323C5.82355 554.775 6.89936 550.263 8.08946 545.785C9.17193 541.701 10.4154 537.66 11.7484 533.651C12.6502 530.942 13.6301 528.259 14.6296 525.586C15.6686 522.803 16.7856 520.047 17.9206 517.302C17.9158 517.316 17.9102 517.329 17.904 517.341L17.9345 517.272C18.5065 515.912 19.0855 514.557 19.6715 513.206C20.2797 511.817 20.8942 510.451 21.5074 509.08C22.7519 506.323 24.056 503.597 25.3787 500.876C26.7014 498.155 28.089 495.439 29.489 492.741C31.1253 489.581 32.8242 486.452 34.5439 483.338C37.4991 477.982 40.5923 472.702 43.7396 467.459C47.1433 461.792 50.659 456.195 54.2217 450.628C57.4773 445.542 60.7805 440.488 64.1314 435.465C67.7819 429.96 71.4865 424.491 75.1492 418.995C82.8125 407.498 90.2167 395.829 97.4584 384.057C104.7 372.285 111.766 360.359 118.703 348.376C125.641 336.393 132.426 324.344 139.154 312.265C141.971 307.206 144.775 302.138 147.567 297.062C149.825 292.967 152.077 288.869 154.324 284.77C158.98 276.25 163.527 267.675 167.965 259.043C170.187 254.687 172.364 250.307 174.494 245.902C176.839 241.051 179.105 236.161 181.293 231.232C183.175 227.015 184.983 222.765 186.719 218.483C188.772 213.454 190.703 208.38 192.511 203.258C194.177 198.574 195.718 193.847 197.131 189.077C197.835 186.72 198.494 184.346 199.129 181.971C199.863 179.221 200.529 176.446 201.166 173.681C201.705 171.329 202.181 168.962 202.635 166.592C203.088 164.222 203.471 161.89 203.831 159.53C204.132 157.561 204.38 155.586 204.613 153.611C204.93 150.904 205.152 148.186 205.329 145.468C205.479 143.165 205.547 140.858 205.585 138.55C205.624 136.242 205.571 133.987 205.49 131.709C205.409 129.43 205.234 127.194 205.024 124.945C204.813 122.696 204.505 120.446 204.16 118.209C203.816 115.971 203.376 113.818 202.89 111.641C202.405 109.463 201.824 107.323 201.198 105.188C200.885 104.119 200.536 103.063 200.184 102.007C199.832 100.951 199.446 99.9018 199.056 98.8585C198.666 97.8152 198.241 96.7765 197.814 95.7431C197.388 94.7096 196.902 93.6478 196.428 92.61C195.954 91.5722 195.449 90.5745 194.943 89.5745C194.438 88.5746 193.885 87.565 193.337 86.5715C192.789 85.578 192.193 84.5876 191.6 83.6034C191.008 82.6193 190.37 81.6474 189.736 80.6697C189.101 79.692 188.418 78.7421 187.739 77.791C187.06 76.8399 186.332 75.8896 185.61 74.9524C185.111 74.304 184.597 73.6765 184.081 73.0422C183.063 71.7848 181.991 70.5736 180.911 69.3695C180.086 68.4501 179.227 67.5618 178.369 66.6734C177.511 65.7851 176.589 64.8967 175.683 64.0235C174.778 63.1503 173.807 62.2799 172.852 61.4248C171.897 60.5696 170.882 59.7184 169.882 58.8853C168.199 57.4798 166.453 56.1501 164.703 54.8336C163.66 54.0512 162.593 53.2996 161.528 52.5452C160.107 51.5404 158.657 50.5752 157.205 49.6129C155.024 48.1692 152.796 46.7894 150.563 45.4259C148.329 44.0624 146.053 42.7375 143.781 41.4211C141.509 40.1048 139.214 38.8141 136.922 37.5228C134.629 36.2315 132.337 34.9425 130.047 33.6483C127.756 32.3541 125.486 31.0446 123.217 29.7202C120.947 28.3957 118.716 27.0413 116.491 25.661C114.265 24.2807 112.091 22.8524 109.929 21.3888C108.852 20.6621 107.789 19.9071 106.731 19.1508C105.673 18.3945 104.632 17.6137 103.594 16.8301L103.628 16.8577C102.938 16.3314 102.254 15.7985 101.577 15.259C100.9 14.7195 100.228 14.172 99.5608 13.6166C98.892 13.06 98.2346 12.5005 97.5818 11.9396C96.5939 11.0885 95.6443 10.1977 94.6725 9.31525C94.0401 8.71789 93.4115 8.113 92.7865 7.50059C92.1616 6.88817 91.543 6.26914 90.9309 5.64348C90.3194 5.01437 89.7131 4.3798 89.1118 3.73979C88.2035 2.77413 87.3285 1.77747 86.4562 0.772719L86.441 0.752282ZM17.9141 517.26L17.9003 517.291L17.9158 517.257L17.9141 517.26ZM184.748 221.814L184.765 221.775C184.758 221.787 184.752 221.8 184.748 221.814Z" fill="#7D8F91"/>
</svg>
