<svg width="432" height="339" viewBox="0 0 432 339" fill="none" xmlns="http://www.w3.org/2000/svg">
<path opacity="0.7" d="M305.354 420C305.177 419.576 304.991 419.156 304.797 418.74C304.602 418.323 304.403 417.912 304.2 417.507C303.995 417.103 303.783 416.702 303.564 416.305C303.243 415.708 302.892 415.13 302.54 414.551C302.072 413.783 301.571 413.037 301.07 412.293C300.439 411.366 299.767 410.468 299.087 409.578C298.675 409.036 298.246 408.508 297.818 407.985C297.112 407.113 296.374 406.271 295.633 405.423C294.892 404.576 294.123 403.752 293.352 402.932C292.582 402.111 291.792 401.3 291 400.494C289.572 399.039 288.115 397.613 286.659 396.187C285.039 394.6 283.418 393.014 281.818 391.41C281.179 390.768 280.545 390.121 279.917 389.469C279.132 388.659 278.361 387.833 277.597 387.001C276.832 386.17 276.093 385.325 275.36 384.468C274.627 383.612 273.924 382.738 273.23 381.853C273.236 381.86 273.241 381.867 273.246 381.874C272.969 381.519 272.698 381.161 272.43 380.801C272.023 380.261 271.635 379.71 271.246 379.157C270.858 378.605 270.494 378.045 270.128 377.483C269.761 376.921 269.428 376.369 269.089 375.804C268.868 375.432 268.652 375.058 268.441 374.681C268.125 374.126 267.828 373.559 267.533 372.993C267.238 372.427 266.972 371.867 266.701 371.299C266.431 370.731 266.197 370.184 265.955 369.622L265.945 369.601L265.953 369.618C265.795 369.244 265.642 368.869 265.495 368.493C265.269 367.931 265.065 367.359 264.861 366.788C264.526 365.85 264.238 364.895 263.963 363.939C263.689 362.982 263.473 362.039 263.259 361.08C263.136 360.51 263.03 359.936 262.926 359.365C262.822 358.794 262.739 358.22 262.659 357.65L262.659 357.658C262.635 357.474 262.611 357.29 262.588 357.107C262.54 356.726 262.497 356.342 262.465 355.959C262.404 355.386 262.365 354.811 262.324 354.236C262.245 353.088 262.226 351.936 262.226 350.786C262.226 349.636 262.286 348.485 262.363 347.336C262.441 346.187 262.572 345.047 262.721 343.906C262.803 343.335 262.889 342.763 262.98 342.192C263.102 341.424 263.254 340.661 263.408 339.897C263.563 339.134 263.742 338.368 263.924 337.607C264.107 336.846 264.316 336.08 264.527 335.32C264.952 333.784 265.449 332.269 265.974 330.764C266.505 329.239 267.101 327.737 267.721 326.245L267.711 326.266L267.721 326.244L267.721 326.236L267.721 326.243C267.957 325.687 268.196 325.132 268.44 324.577C268.685 324.012 268.947 323.453 269.207 322.893C269.819 321.575 270.467 320.277 271.132 318.986C271.798 317.695 272.506 316.378 273.233 315.103C273.961 313.828 274.727 312.531 275.501 311.272C276.275 310.012 277.093 308.736 277.912 307.484C278.73 306.233 279.588 304.982 280.449 303.746C282.174 301.268 283.977 298.847 285.818 296.453L285.811 296.464C286.605 295.44 287.406 294.419 288.216 293.402C289.022 292.392 289.841 291.391 290.666 290.394C292.431 288.253 294.238 286.146 296.065 284.058C299.449 280.19 302.933 276.411 306.458 272.667C309.674 269.253 312.935 265.881 316.188 262.501C321.149 257.356 326.141 252.239 331.163 247.15C336.201 242.062 341.296 237.031 346.448 232.057C351.601 227.083 356.828 222.203 362.129 217.415C364.649 215.139 367.192 212.889 369.757 210.665C372.279 208.47 374.789 206.265 377.29 204.051C379.636 201.969 381.963 199.865 384.273 197.739C386.791 195.418 389.272 193.058 391.716 190.66C393.973 188.445 396.184 186.186 398.35 183.883C399.431 182.739 400.495 181.579 401.544 180.402C402.769 179.042 403.961 177.657 405.14 176.26C406.145 175.07 407.124 173.858 408.093 172.638C408.905 171.616 409.696 170.576 410.48 169.531C411.404 168.306 412.296 167.045 413.176 165.782C414.033 164.55 414.856 163.293 415.662 162.026C416.945 160.009 418.142 157.939 419.286 155.842C419.861 154.79 420.408 153.723 420.949 152.658C421.579 151.406 422.174 150.136 422.755 148.861C423.677 146.841 424.521 144.784 425.317 142.713C425.748 141.591 426.151 140.458 426.542 139.323C427.001 138 427.422 136.664 427.828 135.324C428.175 134.177 428.492 133.022 428.8 131.865C429.107 130.707 429.384 129.546 429.65 128.381C429.916 127.216 430.15 126.054 430.373 124.88C430.633 123.521 430.852 122.153 431.054 120.782C431.2 119.791 431.322 118.797 431.436 117.801C431.572 116.631 431.674 115.458 431.764 114.283C431.855 113.108 431.907 111.951 431.951 110.775C432.002 109.414 432.007 108.052 431.994 106.692C431.981 105.529 431.934 104.364 431.871 103.208C431.809 102.052 431.713 100.9 431.603 99.749C431.548 99.1758 431.48 98.6026 431.413 98.0342C431.365 97.6386 431.314 97.2406 431.257 96.8449C431.176 96.2733 431.091 95.7046 431.004 95.1387C430.881 94.3842 430.745 93.6322 430.603 92.8801C430.391 91.7557 430.139 90.6386 429.868 89.5252C429.597 88.4119 429.297 87.3132 428.979 86.2182C428.66 85.1232 428.299 84.0392 427.925 82.9613C427.488 81.7034 426.998 80.4638 426.486 79.2353C426.118 78.3412 425.71 77.4593 425.297 76.5823C424.807 75.5436 424.281 74.5258 423.737 73.5202C423.193 72.5146 422.602 71.5114 422.001 70.5279C421.293 69.3704 420.531 68.2472 419.748 67.1387C419.176 66.3267 418.572 65.5378 417.961 64.7539C417.226 63.8169 416.462 62.9167 415.681 62.0189C414.899 61.1211 414.055 60.2416 413.212 59.3818C412.209 58.3603 411.159 57.3877 410.091 56.436C409.156 55.6019 408.186 54.8094 407.206 54.0292C406.33 53.3335 405.428 52.672 404.522 52.0167C403.305 51.1398 402.055 50.3106 400.793 49.5009C400.172 49.1028 399.541 48.7219 398.909 48.341C398.076 47.8388 397.228 47.3611 396.376 46.892C395.12 46.1963 393.834 45.5533 392.541 44.9323C391.901 44.6236 391.253 44.3333 390.606 44.043C390.165 43.8446 389.717 43.6511 389.271 43.4661L388.622 43.1966C388.19 43.0194 387.756 42.8459 387.32 42.6761C386.672 42.42 386.015 42.1861 385.36 41.9412C383.843 41.3912 382.297 40.9111 380.753 40.4591C379.438 40.0757 378.106 39.7463 376.772 39.4327C375.438 39.1191 374.106 38.8644 372.765 38.6243C372.096 38.5018 371.425 38.4026 370.752 38.2997C370.293 38.2299 369.827 38.165 369.365 38.1062C368.692 38.0205 368.019 37.9388 367.346 37.8612C366.447 37.7633 365.548 37.691 364.651 37.6163C363.304 37.5134 361.948 37.4594 360.594 37.4215C359.24 37.3835 357.882 37.3921 356.526 37.4215C355.169 37.4509 353.81 37.517 352.454 37.6015C350.867 37.702 349.284 37.8588 347.704 38.0364C346.557 38.1662 345.414 38.3267 344.274 38.4957C342.917 38.6954 341.564 38.9354 340.214 39.189C338.864 39.4425 337.519 39.7352 336.171 40.0402C334.596 40.3979 333.032 40.8021 331.472 41.2246C330.125 41.5921 328.797 41.9865 327.466 42.3956C326.136 42.8047 324.808 43.253 323.487 43.7037C322.167 44.1545 320.85 44.6444 319.539 45.1405C318.006 45.7223 316.489 46.3408 314.977 46.9778C312.365 48.0728 309.792 49.2597 307.246 50.498C305.766 51.217 304.305 51.9678 302.845 52.7346C301.385 53.5013 299.949 54.2926 298.516 55.0997C295.865 56.5916 293.263 58.1704 290.693 59.7983C287.951 61.5351 285.266 63.3601 282.621 65.2378C280.141 66.9991 277.721 68.8413 275.3 70.681C272.807 72.5755 270.323 74.4829 267.848 76.4035C262.722 80.3695 257.619 84.365 252.492 88.3286L252.525 88.3029C250.059 90.2079 247.585 92.1032 245.104 93.9886C242.437 96.0145 239.754 98.0184 237.054 100C234.354 101.982 231.64 103.924 228.911 105.827C226.186 107.737 223.433 109.604 220.652 111.428C218.081 113.121 215.48 114.768 212.849 116.369C210.027 118.093 207.168 119.754 204.274 121.352C201.38 122.95 198.451 124.475 195.488 125.927C194.006 126.655 192.509 127.356 191.007 128.044C189.505 128.733 188.007 129.382 186.495 130.022L186.505 130.022C185.851 130.297 185.195 130.568 184.536 130.837C183.878 131.105 183.217 131.366 182.555 131.626C181.008 132.238 179.447 132.809 177.882 133.369C176.316 133.928 174.723 134.456 173.133 134.961C171.543 135.466 169.921 135.949 168.307 136.407C166.692 136.866 165.039 137.289 163.397 137.692C161.754 138.095 160.072 138.464 158.401 138.811C156.73 139.157 155.015 139.467 153.314 139.755C151.745 140.02 150.17 140.245 148.593 140.461L148.551 140.461L148.571 140.461C147.918 140.542 147.264 140.624 146.611 140.705C145.719 140.815 144.827 140.909 143.935 141.002C142.137 141.189 140.336 141.335 138.533 141.46C136.73 141.585 134.893 141.673 133.073 141.739C131.252 141.805 129.398 141.83 127.566 141.836C125.735 141.842 123.873 141.804 122.027 141.749C120.18 141.694 118.317 141.596 116.465 141.478C114.613 141.361 112.749 141.202 110.895 141.023C109.04 140.844 107.211 140.626 105.374 140.387C104.679 140.294 103.985 140.198 103.292 140.098C102.366 139.966 101.441 139.82 100.518 139.672C98.9001 139.412 97.2879 139.118 95.6794 138.814C94.071 138.511 92.4674 138.165 90.8675 137.809C89.0409 137.402 87.2254 136.951 85.4148 136.48C83.832 136.068 82.259 135.622 80.691 135.159C78.9024 134.633 77.1273 134.057 75.3595 133.468C73.8172 132.951 72.2871 132.397 70.7619 131.829C69.0248 131.182 67.3061 130.488 65.5947 129.773L65.6082 129.779C65.1941 129.605 64.7809 129.428 64.3684 129.248C63.7314 128.975 63.0992 128.692 62.4671 128.408C61.2053 127.843 59.9582 127.249 58.7136 126.644C57.4689 126.039 56.25 125.411 55.0299 124.769C53.8097 124.127 52.6141 123.46 51.4197 122.78C50.4261 122.216 49.4473 121.63 48.471 121.038C47.3022 120.329 46.1519 119.592 45.009 118.843C43.866 118.095 42.7487 117.319 41.6364 116.533C40.5241 115.747 39.4533 114.947 38.3802 114.129L38.3986 114.143C38.04 113.867 37.6827 113.589 37.3267 113.309C36.9706 113.029 36.6173 112.747 36.267 112.463C35.3543 111.728 34.4612 110.975 33.5719 110.213C32.8528 109.601 32.1496 108.959 31.4489 108.321C30.5828 107.532 29.7338 106.72 28.902 105.9C28.2393 105.252 27.5936 104.588 26.9505 103.922C26.1542 103.098 25.3812 102.249 24.6155 101.397C23.8499 100.544 23.1247 99.6817 22.3982 98.8145C21.6718 97.9473 20.993 97.0801 20.3156 96.1982C20.0486 95.852 19.7848 95.5034 19.5242 95.1523C19.2637 94.8011 18.9999 94.4422 18.7329 94.0756C18.0799 93.1802 17.4527 92.2653 16.8328 91.3466C16.3428 90.6117 15.865 89.8768 15.3934 89.1296C14.8066 88.2024 14.2467 87.2605 13.693 86.3125C13.252 85.558 12.8355 84.7925 12.4116 84.027C11.8897 83.0728 11.3948 82.1039 10.906 81.1314C10.0301 79.3885 9.22766 77.6088 8.46323 75.8156L8.48288 75.8634C8.31546 75.4649 8.15006 75.0651 7.98673 74.6642C7.74173 74.064 7.50653 73.459 7.27255 72.8539C6.88297 71.8471 6.52032 70.8292 6.16995 69.8089C5.81958 68.7886 5.48514 67.7598 5.16418 66.7285C4.77707 65.4901 4.42914 64.2395 4.08734 62.9878C3.80438 61.9417 3.54837 60.8896 3.29846 59.8362C3.04855 58.7829 2.82559 57.7185 2.60751 56.6516C2.38946 55.5848 2.19714 54.5167 2.01214 53.445C1.78918 52.1553 1.5993 50.8593 1.42166 49.5622L1.42901 49.6149C1.34326 48.9633 1.26245 48.3129 1.18402 47.6552C1.10562 46.9974 1.03943 46.3482 0.972074 45.6954C0.816495 44.1631 0.703794 42.6259 0.604581 41.0887C0.521268 39.7647 0.469815 38.4381 0.42941 37.1117C0.38284 35.5573 0.376736 34.0005 0.386532 32.445C0.395108 31.0976 0.434262 29.7626 0.484493 28.4226C0.540829 26.8499 0.638882 25.2784 0.750362 23.7094C0.847133 22.3621 0.973262 21.0061 1.10803 19.6563C1.26608 18.0861 1.46087 16.5183 1.66915 14.9529C1.82434 13.8261 1.99008 12.7004 2.1665 11.576C2.37844 10.2165 2.61978 8.86051 2.86843 7.50584C2.95175 7.0539 3.03875 6.60191 3.1257 6.14994C3.17101 5.92335 3.21511 5.69801 3.25924 5.47138C3.34744 5.0182 3.43405 4.56461 3.51898 4.1106C3.77624 2.74244 4.01757 1.37061 4.26132 6.87652e-06C4.1964 0.224189 4.13271 0.445838 4.06777 0.668769C3.94201 1.11298 3.81954 1.55881 3.70028 2.00626C3.52023 2.67506 3.36093 3.35364 3.20165 4.02363C3.04238 4.69361 2.90643 5.37095 2.77166 6.0532C2.6369 6.73545 2.51321 7.40913 2.38827 8.08768C2.14327 9.44114 1.91784 10.7983 1.70346 12.1566C1.48907 13.515 1.30285 14.8991 1.12521 16.2733C0.778499 18.968 0.522487 21.6749 0.327724 24.3855C0.230923 25.7328 0.16354 27.0801 0.105984 28.4275C0.0410426 29.9892 0.0128445 31.5533 0.00182775 33.1174C-0.00674757 34.4513 0.0152862 35.7852 0.0471467 37.1166C0.0790072 38.4479 0.143949 39.7695 0.219907 41.0936C0.295835 42.4177 0.401212 43.7295 0.520048 45.0437C0.658476 46.5724 0.838591 48.0949 1.03702 49.6161C1.18036 50.7185 1.34942 51.811 1.52707 52.906C1.7341 54.1945 1.97537 55.4782 2.22897 56.7582C2.48257 58.0381 2.76923 59.3047 3.06814 60.5724C3.41605 62.0422 3.81177 63.512 4.22461 64.9671C4.57864 66.2152 4.96945 67.4523 5.37125 68.6845C5.77304 69.9167 6.21161 71.1342 6.66245 72.3529C7.11328 73.5717 7.60208 74.7708 8.1019 75.9687C8.60172 77.1666 9.15421 78.3828 9.71283 79.5759C10.2714 80.7689 10.8534 81.9202 11.4536 83.0765C12.0539 84.2327 12.6983 85.3804 13.35 86.5147C14.0017 87.6488 14.6976 88.7757 15.4032 89.8879C16.2313 91.1948 17.106 92.471 17.9991 93.7351C18.3849 94.2802 18.7818 94.8178 19.1787 95.3543C19.4544 95.7218 19.7362 96.0978 20.0204 96.4641C20.4288 96.9964 20.8449 97.5272 21.2687 98.0563C21.6901 98.5855 22.1262 99.1048 22.5575 99.6242C23.4321 100.673 24.3411 101.693 25.2599 102.702C26.349 103.896 27.4797 105.051 28.6263 106.189C29.6248 107.18 30.6563 108.139 31.6964 109.086C32.7364 110.033 33.8426 110.977 34.9403 111.893C35.9816 112.763 37.0474 113.608 38.1254 114.431C39.2035 115.254 40.3305 116.085 41.4465 116.881C42.5625 117.677 43.6847 118.437 44.8203 119.19C45.9559 119.943 47.1173 120.669 48.2823 121.385C49.4473 122.1 50.6356 122.788 51.8275 123.467C53.2217 124.259 54.6378 125.014 56.0613 125.753C57.2864 126.388 58.5262 126.995 59.7696 127.59C61.013 128.185 62.2798 128.756 63.5452 129.316C64.6196 129.79 65.7025 130.243 66.7867 130.69C68.2873 131.308 69.804 131.889 71.3194 132.455C73.9373 133.435 76.587 134.311 79.2564 135.135C80.5942 135.549 81.9417 135.935 83.2905 136.311C84.866 136.75 86.4524 137.155 88.0413 137.545C90.7683 138.217 93.5172 138.796 96.2748 139.321C97.6555 139.585 99.0398 139.821 100.425 140.049C101.117 140.163 101.812 140.268 102.508 140.372C103.204 140.476 103.931 140.582 104.644 140.677C105.357 140.773 106.035 140.86 106.727 140.948C107.419 141.036 108.119 141.113 108.81 141.193C110.201 141.351 111.594 141.481 112.988 141.603C115.996 141.868 119.013 142.032 122.03 142.134C124.795 142.227 127.563 142.235 130.328 142.191C133.293 142.143 136.257 141.999 139.215 141.791C141.91 141.601 144.598 141.325 147.28 140.998C148.402 140.861 149.522 140.704 150.64 140.543C152.305 140.298 153.962 140.022 155.616 139.723C157.065 139.461 158.507 139.165 159.947 138.858C161.386 138.552 162.795 138.215 164.212 137.866C165.63 137.517 167.019 137.141 168.416 136.753C170.034 136.301 171.64 135.811 173.242 135.305C175.515 134.587 177.765 133.799 180.001 132.978C182.237 132.157 184.426 131.275 186.616 130.359C188.592 129.531 190.547 128.654 192.496 127.753C194.638 126.762 196.752 125.716 198.853 124.643C200.954 123.57 203.032 122.449 205.094 121.305C207.155 120.161 209.2 118.972 211.229 117.763C213.257 116.554 215.271 115.302 217.268 114.036C219.265 112.769 221.253 111.463 223.224 110.147C227.182 107.502 231.076 104.757 234.931 101.967C238.806 99.1623 242.633 96.2913 246.438 93.3933C250.076 90.6243 253.697 87.8329 257.299 85.0191C261.279 81.9251 265.259 78.832 269.241 75.7396L269.207 75.7641C270.915 74.4446 272.627 73.1295 274.342 71.8189C276.228 70.3768 278.121 68.9454 280.021 67.5246C281.682 66.2899 283.371 65.092 285.07 63.9125C286.978 62.5885 288.919 61.3121 290.876 60.0616C292.649 58.9286 294.449 57.836 296.267 56.7667C298.288 55.5737 300.34 54.4395 302.409 53.3261C304.478 52.2127 306.584 51.1631 308.703 50.1416C310.823 49.12 312.964 48.1683 315.126 47.2509L315.087 47.2668C315.519 47.0839 315.952 46.9039 316.386 46.7267C317.035 46.4584 317.688 46.2 318.346 45.9403C319.649 45.4247 320.964 44.9371 322.283 44.4607C323.602 43.9842 324.923 43.542 326.252 43.1134C327.581 42.6847 328.912 42.2829 330.248 41.8959C331.359 41.5737 332.478 41.2834 333.598 40.9895C334.937 40.6428 336.284 40.333 337.633 40.0366C338.982 39.7402 340.328 39.4817 341.685 39.2367C343.043 38.9917 344.39 38.7885 345.748 38.5974L345.727 38.5974C346.17 38.5361 346.616 38.4749 347.061 38.4234C347.506 38.372 347.965 38.3156 348.418 38.2654C349.321 38.1638 350.226 38.0841 351.133 38.0082C352.039 37.9322 352.942 37.8784 353.848 37.8282C354.977 37.7669 356.109 37.7375 357.24 37.7167C358.144 37.7008 359.048 37.7094 359.951 37.7167C361.08 37.7314 362.209 37.7803 363.336 37.8391C364.237 37.8869 365.138 37.9617 366.038 38.0364C367.157 38.1307 368.271 38.2629 369.386 38.4038C370.051 38.4945 370.715 38.5904 371.377 38.6917C372.274 38.8288 373.165 38.9929 374.056 39.1608C374.947 39.3286 375.837 39.5282 376.725 39.7242C377.614 39.9202 378.499 40.1529 379.381 40.3856C380.047 40.5595 380.707 40.7531 381.367 40.9454C382.25 41.2038 383.126 41.4892 384.001 41.7795C384.876 42.0698 385.752 42.3919 386.62 42.7165C387.489 43.0411 388.335 43.3889 389.185 43.7429L389.223 43.7576L389.194 43.7466L389.831 44.0185C390.263 44.2063 390.694 44.3974 391.123 44.5918C391.991 44.9813 392.839 45.3989 393.696 45.8166C394.342 46.1363 394.976 46.4731 395.612 46.8099C396.47 47.2644 397.31 47.7457 398.148 48.232C398.784 48.5994 399.411 48.9865 400.036 49.3711C400.881 49.8929 401.709 50.4404 402.534 50.9916C403.16 51.4117 403.775 51.849 404.391 52.285C405.107 52.7921 405.809 53.3225 406.506 53.8565L406.996 54.2448C407.327 54.5045 407.654 54.7678 407.976 55.0348C408.466 55.428 408.936 55.8358 409.41 56.2437C410.499 57.1795 411.543 58.1643 412.567 59.1699C413.571 60.1559 414.527 61.1884 415.464 62.2381C416.378 63.2645 417.243 64.3326 418.087 65.4154C418.44 65.8784 418.788 66.3442 419.132 66.8129C419.592 67.4413 420.032 68.0831 420.468 68.7274C421.225 69.8468 421.93 71.0006 422.613 72.1655C423.297 73.3303 423.916 74.5111 424.518 75.7102C425.121 76.9093 425.629 78.1306 426.156 79.3542C426.3 79.6947 426.439 80.0364 426.578 80.3806C426.716 80.7247 426.857 81.0873 426.993 81.4437C427.266 82.1529 427.518 82.8707 427.767 83.5897C428.266 85.0276 428.697 86.4889 429.099 87.9562C429.501 89.4236 429.834 90.9167 430.141 92.4098C430.449 93.9029 430.69 95.4156 430.904 96.9283C430.955 97.2957 431.001 97.6632 431.047 98.0306C431.092 98.3981 431.137 98.7949 431.178 99.1771C431.284 100.134 431.361 101.093 431.432 102.053C431.575 103.985 431.626 105.921 431.632 107.858C431.638 109.794 431.559 111.757 431.434 113.704C431.309 115.65 431.101 117.623 430.851 119.568L430.858 119.519C430.805 119.91 430.753 120.302 430.696 120.691C430.613 121.279 430.52 121.865 430.426 122.449C430.238 123.624 430.018 124.792 429.788 125.958C429.559 127.124 429.298 128.293 429.023 129.454C428.747 130.615 428.446 131.781 428.132 132.93C427.555 135.052 426.894 137.151 426.186 139.232C425.411 141.509 424.542 143.752 423.613 145.969C423.62 145.954 423.626 145.939 423.633 145.925C423.477 146.294 423.319 146.662 423.161 147.027C422.923 147.578 422.677 148.129 422.426 148.676C421.936 149.771 421.414 150.855 420.886 151.934C419.831 154.086 418.69 156.195 417.495 158.272C416.407 160.167 415.245 162.019 414.042 163.843C413.228 165.075 412.379 166.284 411.522 167.486C410.63 168.736 409.703 169.963 408.768 171.182C408.772 171.176 408.777 171.17 408.781 171.165L408.757 171.196C408.289 171.798 407.818 172.398 407.344 172.994C406.854 173.606 406.364 174.206 405.874 174.809C404.883 176.019 403.866 177.206 402.841 178.388C401.816 179.57 400.758 180.741 399.698 181.901C398.457 183.26 397.189 184.595 395.912 185.921C393.718 188.2 391.465 190.423 389.19 192.621C386.73 194.996 384.224 197.32 381.698 199.624C379.39 201.729 377.062 203.811 374.715 205.871C372.154 208.132 369.57 210.367 367.003 212.622C361.634 217.339 356.371 222.176 351.176 227.087C345.98 231.997 340.852 237.008 335.781 242.064C330.709 247.12 325.705 252.23 320.725 257.362C318.64 259.512 316.56 261.668 314.484 263.83C312.808 265.573 311.133 267.318 309.462 269.065C305.994 272.697 302.573 276.371 299.199 280.088C297.506 281.966 295.831 283.863 294.177 285.778C292.355 287.887 290.568 290.026 288.815 292.195C287.309 294.049 285.837 295.93 284.396 297.836C282.696 300.073 281.052 302.349 279.463 304.665C278.002 306.781 276.6 308.936 275.255 311.129C274.587 312.212 273.94 313.31 273.304 314.411C272.569 315.686 271.865 316.983 271.176 318.279C270.592 319.381 270.037 320.5 269.493 321.623C268.949 322.746 268.446 323.859 267.95 324.99C267.536 325.933 267.147 326.886 266.766 327.841C266.246 329.151 265.77 330.478 265.318 331.812C264.935 332.943 264.592 334.086 264.263 335.233C263.935 336.381 263.66 337.514 263.395 338.663C263.13 339.812 262.918 340.952 262.722 342.103C262.526 343.255 262.379 344.42 262.252 345.583C262.125 346.747 262.056 347.881 262.007 349.034C261.958 350.186 261.962 351.333 261.989 352.483C262.002 353.058 262.035 353.633 262.069 354.207C262.104 354.782 262.156 355.357 262.211 355.931C262.267 356.504 262.34 357.08 262.415 357.653C262.49 358.226 262.59 358.821 262.688 359.403C262.786 359.985 262.905 360.551 263.024 361.118C263.143 361.685 263.283 362.263 263.424 362.833C263.565 363.402 263.731 363.977 263.895 364.548C264.059 365.118 264.248 365.689 264.434 366.262C264.62 366.836 264.834 367.401 265.046 367.967C265.258 368.533 265.495 369.105 265.73 369.67C265.893 370.061 266.066 370.443 266.238 370.829C266.579 371.593 266.952 372.341 267.331 373.087C267.62 373.657 267.93 374.215 268.24 374.774C268.55 375.332 268.892 375.899 269.227 376.457C269.563 377.014 269.932 377.579 270.294 378.134C270.657 378.688 271.05 379.249 271.439 379.799C272.092 380.727 272.786 381.624 273.484 382.516C273.901 383.046 274.333 383.564 274.765 384.084C275.34 384.776 275.936 385.452 276.532 386.127C277.429 387.14 278.358 388.127 279.291 389.107C280.225 390.087 281.185 391.053 282.144 392.015C283.103 392.976 284.077 393.928 285.05 394.88C286.023 395.831 286.995 396.782 287.967 397.735C288.938 398.688 289.898 399.646 290.854 400.611C291.811 401.576 292.745 402.551 293.672 403.538C294.599 404.525 295.495 405.53 296.379 406.55C296.82 407.057 297.25 407.576 297.678 408.096C298.105 408.615 298.521 409.144 298.935 409.675L298.921 409.656C299.196 410.011 299.466 410.369 299.732 410.729C299.999 411.089 300.261 411.453 300.52 411.819C300.78 412.187 301.033 412.554 301.284 412.922C301.664 413.479 302.019 414.051 302.387 414.622C302.623 415.005 302.856 415.391 303.087 415.78C303.317 416.17 303.543 416.562 303.765 416.956C303.987 417.352 304.205 417.75 304.419 418.15C304.744 418.754 305.048 419.369 305.349 419.988L305.354 420ZM408.765 171.204L408.776 171.191L408.764 171.205L408.765 171.204ZM285.827 296.436L285.813 296.453C285.818 296.448 285.823 296.442 285.827 296.436Z" fill="#7D8F91"/>
</svg>
